HIERARCHY
ROOT hip
{
  OFFSET 0 90.174 2.4664
  CHANNELS 6 Xposition Yposition Zposition Zrotation Xrotation Yrotation
  JOINT abdomen
  {
    OFFSET 0 -1.186 -1.5018
    CHANNELS 6 Xposition Yposition Zposition Zrotation Xrotation Yrotation
    JOINT abdomen2
    {
      OFFSET 0 9.964 0.2134
      CHANNELS 6 Xposition Yposition Zposition Zrotation Xrotation Yrotation
      JOINT chest
      {
        OFFSET 0 13.134 -3.2573
        CHANNELS 6 Xposition Yposition Zposition Zrotation Xrotation Yrotation
        JOINT neck
        {
          OFFSET 0 20.686 -1.6905
          CHANNELS 6 Xposition Yposition Zposition Zrotation Xrotation Yrotation
          JOINT head
          {
            OFFSET 0 7.238 -0.1237
            CHANNELS 6 Xposition Yposition Zposition Zrotation Xrotation Yrotation
            End Site
            {
              OFFSET 0 0 0
            }
          }
        }
        JOINT lCollar
        {
          OFFSET 1.7069 20.075 5.0056
          CHANNELS 6 Xposition Yposition Zposition Zrotation Xrotation Yrotation
          JOINT lShldr
          {
            OFFSET 13.6458 -0.047 -4.849
            CHANNELS 6 Xposition Yposition Zposition Zrotation Xrotation Yrotation
            JOINT lForeArm
            {
              OFFSET 28.3255 -0.9759 2.2888
              CHANNELS 6 Xposition Yposition Zposition Zrotation Xrotation Yrotation
              JOINT lHand
              {
                OFFSET 22.1583 -0.53 10.8316
                CHANNELS 6 Xposition Yposition Zposition Zrotation Xrotation Yrotation
                JOINT lThumb1
                {
                  OFFSET 0.786 0.112 2.5817
                  CHANNELS 6 Xposition Yposition Zposition Zrotation Xrotation Yrotation
                  JOINT lThumb2
                  {
                    OFFSET 0.3601 -0.878 4.2331
                    CHANNELS 6 Xposition Yposition Zposition Zrotation Xrotation Yrotation
                    JOINT lThumb2_End
                    {
                      OFFSET 1.8127 -1.216 2.2227
                      CHANNELS 6 Xposition Yposition Zposition Zrotation Xrotation Yrotation
                      End Site
                      {
                        OFFSET 0.0181 -0.0122 0.0222
                      }
                    }
                  }
                }
                JOINT lCarpal1
                {
                  OFFSET 0.9571 1.114 1.7695
                  CHANNELS 6 Xposition Yposition Zposition Zrotation Xrotation Yrotation
                  JOINT lIndex1
                  {
                    OFFSET 4.1246 0.487 4.1451
                    CHANNELS 6 Xposition Yposition Zposition Zrotation Xrotation Yrotation
                    JOINT lIndex2
                    {
                      OFFSET 3.4052 -1.454 2.7682
                      CHANNELS 6 Xposition Yposition Zposition Zrotation Xrotation Yrotation
                      JOINT lIndex2_End
                      {
                        OFFSET 1.4531 -1.795 1.2713
                        CHANNELS 6 Xposition Yposition Zposition Zrotation Xrotation Yrotation
                        End Site
                        {
                          OFFSET 0.0145 -0.0179 0.0127
                        }
                      }
                    }
                  }
                  JOINT lMid1
                  {
                    OFFSET 5.6954 0.21 2.1184
                    CHANNELS 6 Xposition Yposition Zposition Zrotation Xrotation Yrotation
                    JOINT lMid2
                    {
                      OFFSET 3.9766 -1.54 2.3863
                      CHANNELS 6 Xposition Yposition Zposition Zrotation Xrotation Yrotation
                      JOINT lMid2_End
                      {
                        OFFSET 1.4042 -1.926 1.125
                        CHANNELS 6 Xposition Yposition Zposition Zrotation Xrotation Yrotation
                        End Site
                        {
                          OFFSET 0.014 -0.0193 0.0113
                        }
                      }
                    }
                  }
                }
                JOINT lCarpal2
                {
                  OFFSET 2.0956 0.66 -0.3894
                  CHANNELS 6 Xposition Yposition Zposition Zrotation Xrotation Yrotation
                  JOINT lRing1
                  {
                    OFFSET 5.0395 -0.09 2.4971
                    CHANNELS 6 Xposition Yposition Zposition Zrotation Xrotation Yrotation
                    JOINT lRing2
                    {
                      OFFSET 3.7921 -1.552 1.4806
                      CHANNELS 6 Xposition Yposition Zposition Zrotation Xrotation Yrotation
                      JOINT lRing2_End
                      {
                        OFFSET 1.4655 -1.808 0.9609
                        CHANNELS 6 Xposition Yposition Zposition Zrotation Xrotation Yrotation
                        End Site
                        {
                          OFFSET 0.0147 -0.0181 0.0096
                        }
                      }
                    }
                  }
                  JOINT lPinky1
                  {
                    OFFSET 4.9141 -1.269 0.3591
                    CHANNELS 6 Xposition Yposition Zposition Zrotation Xrotation Yrotation
                    JOINT lPinky2
                    {
                      OFFSET 3.1477 -1.685 0.8462
                      CHANNELS 6 Xposition Yposition Zposition Zrotation Xrotation Yrotation
                      JOINT lPinky2_End
                      {
                        OFFSET 0.8055 -1.585 0.7955
                        CHANNELS 6 Xposition Yposition Zposition Zrotation Xrotation Yrotation
                        End Site
                        {
                          OFFSET 0.0081 -0.0158 0.008
                        }
                      }
                    }
                  }
                }
              }
            }
          }
        }
        JOINT rCollar
        {
          OFFSET -1.7069 20.075 5.0056
          CHANNELS 6 Xposition Yposition Zposition Zrotation Xrotation Yrotation
          JOINT rShldr
          {
            OFFSET -13.6458 -0.047 -4.849
            CHANNELS 6 Xposition Yposition Zposition Zrotation Xrotation Yrotation
            JOINT rForeArm
            {
              OFFSET -28.3255 -0.9759 2.2888
              CHANNELS 6 Xposition Yposition Zposition Zrotation Xrotation Yrotation
              JOINT rHand
              {
                OFFSET -22.1583 -0.53 10.8316
                CHANNELS 6 Xposition Yposition Zposition Zrotation Xrotation Yrotation
                JOINT rThumb1
                {
                  OFFSET -0.786 0.112 2.5817
                  CHANNELS 6 Xposition Yposition Zposition Zrotation Xrotation Yrotation
                  JOINT rThumb2
                  {
                    OFFSET -0.3601 -0.878 4.2331
                    CHANNELS 6 Xposition Yposition Zposition Zrotation Xrotation Yrotation
                    JOINT rThumb2_End
                    {
                      OFFSET -1.8127 -1.216 2.2227
                      CHANNELS 6 Xposition Yposition Zposition Zrotation Xrotation Yrotation
                      End Site
                      {
                        OFFSET -0.0181 -0.0122 0.0222
                      }
                    }
                  }
                }
                JOINT rCarpal1
                {
                  OFFSET -0.9571 1.114 1.7695
                  CHANNELS 6 Xposition Yposition Zposition Zrotation Xrotation Yrotation
                  JOINT rIndex1
                  {
                    OFFSET -4.1246 0.487 4.1451
                    CHANNELS 6 Xposition Yposition Zposition Zrotation Xrotation Yrotation
                    JOINT rIndex2
                    {
                      OFFSET -3.4052 -1.454 2.7682
                      CHANNELS 6 Xposition Yposition Zposition Zrotation Xrotation Yrotation
                      JOINT rIndex2_End
                      {
                        OFFSET -1.4531 -1.795 1.2713
                        CHANNELS 6 Xposition Yposition Zposition Zrotation Xrotation Yrotation
                        End Site
                        {
                          OFFSET -0.0145 -0.018 0.0127
                        }
                      }
                    }
                  }
                  JOINT rMid1
                  {
                    OFFSET -5.6954 0.21 2.1184
                    CHANNELS 6 Xposition Yposition Zposition Zrotation Xrotation Yrotation
                    JOINT rMid2
                    {
                      OFFSET -3.9766 -1.54 2.3863
                      CHANNELS 6 Xposition Yposition Zposition Zrotation Xrotation Yrotation
                      JOINT rMid2_End
                      {
                        OFFSET -1.4042 -1.926 1.125
                        CHANNELS 6 Xposition Yposition Zposition Zrotation Xrotation Yrotation
                        End Site
                        {
                          OFFSET -0.014 -0.0193 0.0113
                        }
                      }
                    }
                  }
                }
                JOINT rCarpal2
                {
                  OFFSET -2.0956 0.66 -0.3894
                  CHANNELS 6 Xposition Yposition Zposition Zrotation Xrotation Yrotation
                  JOINT rRing1
                  {
                    OFFSET -5.0395 -0.09 2.4971
                    CHANNELS 6 Xposition Yposition Zposition Zrotation Xrotation Yrotation
                    JOINT rRing2
                    {
                      OFFSET -3.7921 -1.552 1.4806
                      CHANNELS 6 Xposition Yposition Zposition Zrotation Xrotation Yrotation
                      JOINT rRing2_End
                      {
                        OFFSET -1.4655 -1.808 0.9609
                        CHANNELS 6 Xposition Yposition Zposition Zrotation Xrotation Yrotation
                        End Site
                        {
                          OFFSET -0.0147 -0.0181 0.0096
                        }
                      }
                    }
                  }
                  JOINT rPinky1
                  {
                    OFFSET -4.9141 -1.269 0.3592
                    CHANNELS 6 Xposition Yposition Zposition Zrotation Xrotation Yrotation
                    JOINT rPinky2
                    {
                      OFFSET -3.1477 -1.685 0.8462
                      CHANNELS 6 Xposition Yposition Zposition Zrotation Xrotation Yrotation
                      JOINT rPinky2_End
                      {
                        OFFSET -0.8055 -1.585 0.7955
                        CHANNELS 6 Xposition Yposition Zposition Zrotation Xrotation Yrotation
                        End Site
                        {
                          OFFSET -0.0081 -0.0158 0.008
                        }
                      }
                    }
                  }
                }
              }
            }
          }
        }
      }
    }
  }
  JOINT lThigh
  {
    OFFSET 8.367 -8.2066 0.5982
    CHANNELS 6 Xposition Yposition Zposition Zrotation Xrotation Yrotation
    JOINT lShin
    {
      OFFSET 2.1923 -43.463 -0.4932
      CHANNELS 6 Xposition Yposition Zposition Zrotation Xrotation Yrotation
      JOINT lFoot
      {
        OFFSET 0.7333 -45.8593 -2.6451
        CHANNELS 6 Xposition Yposition Zposition Zrotation Xrotation Yrotation
        End Site
        {
          OFFSET 2.6618 -4.2699 12.3931
        }
      }
    }
  }
  JOINT rThigh
  {
    OFFSET -8.367 -8.2066 0.5982
    CHANNELS 6 Xposition Yposition Zposition Zrotation Xrotation Yrotation
    JOINT rShin
    {
      OFFSET -2.1923 -43.463 -0.4931
      CHANNELS 6 Xposition Yposition Zposition Zrotation Xrotation Yrotation
      JOINT rFoot
      {
        OFFSET -0.7333 -45.8593 -2.6451
        CHANNELS 6 Xposition Yposition Zposition Zrotation Xrotation Yrotation
        End Site
        {
          OFFSET -2.6618 -4.2699 12.3931
        }
      }
    }
  }
}
MOTION
Frames:	4
Frame Time:	0.0333333
0 90.174 2.4664 0 0 -0 0 -1.186 -1.5018 0 0 -0 0 9.964 0.2134 0 0 -0 0 13.134 -3.2573 0 0 -0 0 20.686 -1.6905 0 0 -0 0 7.238 -0.1237 0 0 -0 1.7069 20.075 5.0056 0 0 -0 13.6458 -0.047 -4.849 1.66051 0.0835086 5.75766 28.3255 -0.9759 2.2888 -0.0175111 0.895433 15.7816 22.1583 -0.53 10.8316 7.95139e-016 -1.98785e-016 -0 0.786 0.112 2.5817 5.46658e-016 -3.97569e-016 -0 0.3601 -0.878 4.2331 5.96354e-016 0 -0 1.8127 -1.216 2.2227 3.97569e-016 1.98785e-016 9.54166e-015 0.9571 1.114 1.7695 1.49089e-016 -3.97569e-016 -0 4.1246 0.487 4.1451 6.4605e-016 0 3.18055e-015 3.4052 -1.454 2.7682 5.96354e-016 0 3.18055e-015 1.4531 -1.795 1.2713 8.94531e-016 -1.98785e-016 6.36111e-015 5.6954 0.21 2.1184 6.4605e-016 0 3.18055e-015 3.9766 -1.54 2.3863 5.96354e-016 0 3.18055e-015 1.4042 -1.926 1.125 8.94531e-016 -1.98785e-016 6.36111e-015 2.0956 0.66 -0.3894 1.49089e-016 -3.97569e-016 -0 5.0395 -0.09 2.4971 6.4605e-016 0 3.18055e-015 3.7921 -1.552 1.4806 5.96354e-016 0 3.18055e-015 1.4655 -1.808 0.9609 8.94531e-016 -1.98785e-016 6.36111e-015 4.9141 -1.269 0.3591 6.4605e-016 0 3.18055e-015 3.1477 -1.685 0.8462 5.96354e-016 0 3.18055e-015 0.8055 -1.585 0.7955 8.94531e-016 -1.98785e-016 6.36111e-015 -1.7069 20.075 5.0056 0 0 -0 -13.6458 -0.047 -4.849 -1.4496 0.0636048 -5.0245 -28.3255 -0.9759 2.2888 -1.74811 1.20616 -16.8394 -22.1583 -0.53 10.8316 -1.19271e-015 1.98785e-016 -3.18055e-015 -0.786 0.112 2.5817 -3.97569e-016 1.98785e-016 -3.18055e-015 -0.3601 -0.878 4.2331 -2.98177e-016 1.98785e-016 -3.18055e-015 -1.8127 -1.216 2.2227 -2.98177e-016 3.97569e-016 -0 -0.9571 1.114 1.7695 4.96962e-016 0 -6.36111e-015 -4.1246 0.487 4.1451 -9.93923e-017 3.97569e-016 -0 -3.4052 -1.454 2.7682 -8.94531e-016 5.96354e-016 -0 -1.4531 -1.795 1.2713 -3.97569e-016 3.97569e-016 -0 -5.6954 0.21 2.1184 -9.93923e-017 3.97569e-016 -0 -3.9766 -1.54 2.3863 -8.94531e-016 5.96354e-016 -0 -1.4042 -1.926 1.125 -3.97569e-016 3.97569e-016 -0 -2.0956 0.66 -0.3894 4.96962e-016 0 -6.36111e-015 -5.0395 -0.09 2.4971 -9.93923e-017 3.97569e-016 -0 -3.7921 -1.552 1.4806 -8.94531e-016 5.96354e-016 -0 -1.4655 -1.808 0.9609 -3.97569e-016 3.97569e-016 -0 -4.9141 -1.269 0.3592 -9.93923e-017 3.97569e-016 -0 -3.1477 -1.685 0.8462 -8.94531e-016 5.96354e-016 -0 -0.8055 -1.585 0.7955 -3.97569e-016 3.97569e-016 -0 8.367 -8.2066 0.5982 -4.66115 -1.03232 0.120763 2.1923 -43.463 -0.4932 0.00990601 1.55097 0.177175 0.7333 -45.8593 -2.6451 4.65196 -0.54114 -0.255042 -8.367 -8.2066 0.5982 4.66115 -1.03222 -0.120763 -2.1923 -43.463 -0.4931 -0.00990459 1.5509 -0.177176 -0.7333 -45.8593 -2.6451 -4.65196 -0.541171 0.255041 
42.3089 30.0538 29.2178 -179.995 58.9865 -0.00885688 -7.10543e-015 -1.186 -1.5018 -0.0261179 8.04517 -0.0848085 -7.10543e-015 9.964 0.2134 -0.0406798 16.0904 -0.168402 -7.10543e-015 13.134 -3.2573 -0.0406799 16.0904 -0.168402 -7.10543e-015 20.686 -1.6905 1.77481e-006 13.9967 -3.20383e-007 0 7.238 -0.1237 -6.33597e-008 0.120652 2.4374e-008 1.7069 20.075 5.0056 -17.4702 -1.22935 -1.91391 13.6458 -0.047 -4.849 -42.9333 55.1859 6.60967 28.3255 -0.9759 2.2888 16.6313 32.8835 -4.95881 22.1583 -0.53 10.8316 -0.37015 -5.59503 -1.26064 0.786 0.112 2.5817 2.85693e-007 9.33188e-007 1.21821e-005 0.3601 -0.878 4.2331 -1.89418e-007 3.82081e-007 -1.59764e-008 1.8127 -1.216 2.2227 -1.98785e-015 -2.62396e-014 -3.18055e-015 0.9571 1.114 1.7695 3.97569e-016 3.97569e-016 6.36111e-015 4.1246 0.487 4.1451 2.85693e-007 9.33188e-007 1.21821e-005 3.4052 -1.454 2.7682 -1.89418e-007 3.82081e-007 -1.59764e-008 1.4531 -1.795 1.2713 -1.19271e-015 -2.54444e-014 -3.18055e-015 5.6954 0.21 2.1184 2.85693e-007 9.33188e-007 1.21821e-005 3.9766 -1.54 2.3863 -1.89418e-007 3.82081e-007 -1.59764e-008 1.4042 -1.926 1.125 -1.19271e-015 -2.54444e-014 -3.18055e-015 2.0956 0.66 -0.3894 3.97569e-016 3.97569e-016 6.36111e-015 5.0395 -0.09 2.4971 2.85693e-007 9.33188e-007 1.21821e-005 3.7921 -1.552 1.4806 -1.89418e-007 3.82081e-007 -1.59764e-008 1.4655 -1.808 0.9609 -1.19271e-015 -2.54444e-014 -3.18055e-015 4.9141 -1.269 0.3591 2.85693e-007 9.33188e-007 1.21821e-005 3.1477 -1.685 0.8462 -1.89418e-007 3.82081e-007 -1.59764e-008 0.8055 -1.585 0.7955 -1.19271e-015 -2.54444e-014 -3.18055e-015 -1.7069 20.075 5.0056 11.0049 -1.90558 1.24652 -13.6458 -0.047 -4.849 51.8691 55.0294 -6.04928 -28.3255 -0.9759 2.2888 -19.0918 32.1649 9.46756 -22.1583 -0.53 10.8316 0.110052 -3.13182 -4.94045 -0.786 0.112 2.5817 -7.95139e-016 0 -6.36111e-015 -0.3601 -0.878 4.2331 -6.04122e-007 5.23266e-007 -6.10447e-006 -1.8127 -1.216 2.2227 -7.95139e-016 7.95139e-016 -3.18055e-015 -0.9571 1.114 1.7695 -7.95139e-016 7.95139e-016 -6.36111e-015 -4.1246 0.487 4.1451 7.95139e-016 1.19271e-015 6.36111e-015 -3.4052 -1.454 2.7682 -6.04122e-007 5.23266e-007 -6.10447e-006 -1.4531 -1.795 1.2713 -7.95139e-016 7.95139e-016 -9.54166e-015 -5.6954 0.21 2.1184 7.95139e-016 1.19271e-015 6.36111e-015 -3.9766 -1.54 2.3863 -6.04122e-007 5.23266e-007 -6.10447e-006 -1.4042 -1.926 1.125 -7.95139e-016 7.95139e-016 -9.54166e-015 -2.0956 0.66 -0.3894 -7.95139e-016 7.95139e-016 -6.36111e-015 -5.0395 -0.09 2.4971 7.95139e-016 1.19271e-015 6.36111e-015 -3.7921 -1.552 1.4806 -6.04122e-007 5.23266e-007 -6.10447e-006 -1.4655 -1.808 0.9609 -7.95139e-016 7.95139e-016 -9.54166e-015 -4.9141 -1.269 0.3592 7.95139e-016 1.19271e-015 6.36111e-015 -3.1477 -1.685 0.8462 -6.04122e-007 5.23266e-007 -6.10447e-006 -0.8055 -1.585 0.7955 -7.95139e-016 7.95139e-016 -9.54166e-015 8.367 -8.2066 0.5982 56.6167 -74.6247 87.3104 2.1923 -43.463 -0.4932 1.59587 33.0038 -41.5727 0.7333 -45.8593 -2.6451 21.7764 1.46772 4.58373 -8.367 -8.2066 0.5982 -56.675 -74.5986 -87.3748 -2.1923 -43.463 -0.4931 -1.59178 33.0136 41.558 -0.7333 -45.8593 -2.6451 -21.7943 1.4542 -4.59336 
42.314 30.0549 29.2142 -179.995 58.9947 -0.00885826 0 -1.186 -1.5018 -0.0265175 8.16664 -0.084656 7.10543e-015 9.964 0.2134 -0.0413387 16.3333 -0.168052 0 13.134 -3.2573 -0.0413386 16.3333 -0.168052 0 20.686 -1.6905 6.67167e-006 13.8796 -1.68577e-006 0 7.238 -0.1237 6.07664e-008 0.12034 -1.18355e-007 1.7069 20.075 5.0056 -16.8391 -1.56303 -2.1789 13.6458 -0.047 -4.849 -43.3926 55.1781 6.58324 28.3255 -0.9759 2.2888 16.6313 32.8835 -4.95881 22.1583 -0.53 10.8316 -0.346036 -5.89919 -1.08263 0.786 0.112 2.5817 3.97569e-016 -1.19271e-015 -3.18055e-015 0.3601 -0.878 4.2331 3.82534e-007 1.88509e-007 -1.06185e-008 1.8127 -1.216 2.2227 1.88509e-007 -3.82534e-007 1.58697e-008 0.9571 1.114 1.7695 1.19271e-015 -3.97569e-016 -3.18055e-015 4.1246 0.487 4.1451 2.78299e-015 -3.97569e-016 1.59028e-014 3.4052 -1.454 2.7682 3.82534e-007 1.88509e-007 -1.06185e-008 1.4531 -1.795 1.2713 1.88509e-007 -3.82534e-007 1.58697e-008 5.6954 0.21 2.1184 2.78299e-015 -3.97569e-016 1.59028e-014 3.9766 -1.54 2.3863 3.82534e-007 1.88509e-007 -1.06185e-008 1.4042 -1.926 1.125 1.88509e-007 -3.82534e-007 1.58697e-008 2.0956 0.66 -0.3894 1.19271e-015 -3.97569e-016 -3.18055e-015 5.0395 -0.09 2.4971 2.78299e-015 -3.97569e-016 1.59028e-014 3.7921 -1.552 1.4806 3.82534e-007 1.88509e-007 -1.06185e-008 1.4655 -1.808 0.9609 1.88509e-007 -3.82534e-007 1.58697e-008 4.9141 -1.269 0.3591 2.78299e-015 -3.97569e-016 1.59028e-014 3.1477 -1.685 0.8462 3.82534e-007 1.88509e-007 -1.06185e-008 0.8055 -1.585 0.7955 1.88509e-007 -3.82534e-007 1.58697e-008 -1.7069 20.075 5.0056 10.4447 -2.30773 1.49502 -13.6458 -0.047 -4.849 52.2777 55.0272 -6.0392 -28.3255 -0.9759 2.2888 -19.0918 32.1649 9.46754 -22.1583 -0.53 10.8316 0.106445 -3.41775 -5.11556 -0.786 0.112 2.5817 1.87199e-007 3.82836e-007 2.08169e-008 -0.3601 -0.878 4.2331 3.21783e-007 -4.29498e-007 -9.52095e-008 -1.8127 -1.216 2.2227 -1.59028e-015 -7.95139e-016 -3.18055e-015 -0.9571 1.114 1.7695 -0 -3.97569e-016 -0 -4.1246 0.487 4.1451 1.87199e-007 3.82836e-007 2.0817e-008 -3.4052 -1.454 2.7682 3.21783e-007 -4.29498e-007 -9.52095e-008 -1.4531 -1.795 1.2713 -1.59028e-015 -7.95139e-016 -3.18055e-015 -5.6954 0.21 2.1184 1.87199e-007 3.82836e-007 2.0817e-008 -3.9766 -1.54 2.3863 3.21783e-007 -4.29498e-007 -9.52095e-008 -1.4042 -1.926 1.125 -1.59028e-015 -7.95139e-016 -3.18055e-015 -2.0956 0.66 -0.3894 -0 -3.97569e-016 -0 -5.0395 -0.09 2.4971 1.87199e-007 3.82836e-007 2.0817e-008 -3.7921 -1.552 1.4806 3.21783e-007 -4.29498e-007 -9.52095e-008 -1.4655 -1.808 0.9609 -1.59028e-015 -7.95139e-016 -3.18055e-015 -4.9141 -1.269 0.3592 1.87199e-007 3.82836e-007 2.0817e-008 -3.1477 -1.685 0.8462 3.21783e-007 -4.29498e-007 -9.52095e-008 -0.8055 -1.585 0.7955 -1.59028e-015 -7.95139e-016 -3.18055e-015 8.367 -8.2066 0.5982 56.3833 -74.7717 87.093 2.1923 -43.463 -0.4932 1.59511 32.9978 -41.5811 0.7333 -45.8593 -2.6451 21.9489 1.47479 4.66758 -8.367 -8.2066 0.5982 -56.2436 -74.8408 -86.9741 -2.1923 -43.463 -0.4931 -1.59105 33.0093 41.5686 -0.7333 -45.8593 -2.6451 -22.0768 1.47506 -4.72217 
42.3191 30.0553 29.2096 -179.995 58.9947 -0.00885826 0 -1.186 -1.5018 -0.0269184 8.28837 -0.0845007 0 9.964 0.2134 -0.0420012 16.5768 -0.167696 7.10543e-015 13.134 -3.2573 -0.0420012 16.5768 -0.167696 0 20.686 -1.6905 1.87626e-007 13.7637 -2.89331e-007 0 7.238 -0.1237 8.93262e-008 0.120036 7.38646e-008 1.7069 20.075 5.0056 -16.2089 -1.8999 -2.44045 13.6458 -0.047 -4.849 -43.852 55.1705 6.55671 28.3255 -0.9759 2.2888 16.6313 32.8835 -4.95883 22.1583 -0.53 10.8316 -0.320957 -6.20333 -0.904324 0.786 0.112 2.5817 -1.99292e-007 8.48242e-008 -1.27067e-007 0.3601 -0.878 4.2331 -2.64834e-031 -7.95139e-016 -1.90833e-014 1.8127 -1.216 2.2227 1.99292e-007 -8.48242e-008 1.27067e-007 0.9571 1.114 1.7695 -1.59028e-015 7.95139e-016 6.36111e-015 4.1246 0.487 4.1451 -1.99292e-007 8.48242e-008 -1.27067e-007 3.4052 -1.454 2.7682 -2.20695e-032 -3.97569e-016 -3.18055e-015 1.4531 -1.795 1.2713 1.99292e-007 -8.48242e-008 1.27067e-007 5.6954 0.21 2.1184 -1.99292e-007 8.48242e-008 -1.27067e-007 3.9766 -1.54 2.3863 -2.20695e-032 -3.97569e-016 -3.18055e-015 1.4042 -1.926 1.125 1.99292e-007 -8.48242e-008 1.27067e-007 2.0956 0.66 -0.3894 -1.59028e-015 7.95139e-016 6.36111e-015 5.0395 -0.09 2.4971 -1.99292e-007 8.48242e-008 -1.27067e-007 3.7921 -1.552 1.4806 -2.20695e-032 -3.97569e-016 -3.18055e-015 1.4655 -1.808 0.9609 1.99292e-007 -8.48242e-008 1.27067e-007 4.9141 -1.269 0.3591 -1.99292e-007 8.48242e-008 -1.27067e-007 3.1477 -1.685 0.8462 -2.20695e-032 -3.97569e-016 -3.18055e-015 0.8055 -1.585 0.7955 1.99292e-007 -8.48242e-008 1.27067e-007 -1.7069 20.075 5.0056 9.88578 -2.71263 1.73983 -13.6458 -0.047 -4.849 52.6862 55.0251 -6.02907 -28.3255 -0.9759 2.2888 -19.0918 32.1649 9.46755 -22.1583 -0.53 10.8316 0.101961 -3.70371 -5.29079 -0.786 0.112 2.5817 7.95139e-016 3.97569e-016 3.18055e-015 -0.3601 -0.878 4.2331 7.95139e-016 7.95139e-016 6.36111e-015 -1.8127 -1.216 2.2227 1.59028e-015 3.97569e-016 3.18055e-015 -0.9571 1.114 1.7695 -7.95139e-016 3.97569e-016 3.18055e-015 -4.1246 0.487 4.1451 7.95139e-016 1.19271e-015 1.27222e-014 -3.4052 -1.454 2.7682 7.95139e-016 3.97569e-016 -6.36111e-015 -1.4531 -1.795 1.2713 1.59028e-015 1.59028e-015 -3.18055e-015 -5.6954 0.21 2.1184 7.95139e-016 1.19271e-015 1.27222e-014 -3.9766 -1.54 2.3863 7.95139e-016 3.97569e-016 -6.36111e-015 -1.4042 -1.926 1.125 1.59028e-015 1.59028e-015 -3.18055e-015 -2.0956 0.66 -0.3894 -7.95139e-016 3.97569e-016 3.18055e-015 -5.0395 -0.09 2.4971 7.95139e-016 1.19271e-015 1.27222e-014 -3.7921 -1.552 1.4806 7.95139e-016 3.97569e-016 -6.36111e-015 -1.4655 -1.808 0.9609 1.59028e-015 1.59028e-015 -3.18055e-015 -4.9141 -1.269 0.3592 7.95139e-016 1.19271e-015 1.27222e-014 -3.1477 -1.685 0.8462 7.95139e-016 3.97569e-016 -6.36111e-015 -0.8055 -1.585 0.7955 1.59028e-015 1.59028e-015 -3.18055e-015 8.367 -8.2066 0.5982 56.1464 -74.9185 86.872 2.1923 -43.463 -0.4932 1.59439 32.9921 -41.5893 0.7333 -45.8593 -2.6451 22.1216 1.48207 4.7514 -8.367 -8.2066 0.5982 -55.8 -75.0823 -86.5611 -2.1923 -43.463 -0.4931 -1.59037 33.0055 41.5792 -0.7333 -45.8593 -2.6451 -22.3595 1.49647 -4.85087 
